<?xml version="1.0" encoding="UTF-8"?>
<!DOCTYPE svg PUBLIC "-//W3C//DTD SVG 1.1//EN" "http://www.w3.org/Graphics/SVG/1.1/DTD/svg11.dtd">
<svg xmlns="http://www.w3.org/2000/svg" version="1.1" width="2048px" height="2048px" style="shape-rendering:geometricPrecision; text-rendering:geometricPrecision; image-rendering:optimizeQuality; fill-rule:evenodd; clip-rule:evenodd" xmlns:xlink="http://www.w3.org/1999/xlink">
<g><path style="opacity:0.999" fill="#fefefe" d="M 980.5,75.5 C 1239.65,67.9179 1465.98,149.085 1659.5,319C 1851.01,496.895 1954.84,717.062 1971,979.5C 1978.9,1206.09 1916.23,1410.42 1783,1592.5C 1644.24,1773.88 1463.4,1892.04 1240.5,1947C 997.073,2000.7 766.739,1966.7 549.5,1845C 349.53,1726.65 209.697,1558.15 130,1339.5C 69.0765,1163.21 59.7431,984.209 102,802.5C 153.667,595.878 260.833,424.712 423.5,289C 585.919,158.779 771.585,87.6127 980.5,75.5 Z"/></g>
<g><path style="opacity:1" fill="#000000" d="M 1010.5,1374.5 C 1012.72,1374.18 1014.56,1374.84 1016,1376.5C 1016.48,1375.55 1016.65,1374.55 1016.5,1373.5C 1020.77,1373.92 1025.1,1374.09 1029.5,1374C 1024.54,1374.42 1024.37,1375.25 1029,1376.5C 1030.63,1376.12 1032.13,1375.46 1033.5,1374.5C 1032.4,1374 1031.4,1373.67 1030.5,1373.5C 1031.33,1373.17 1032.17,1372.83 1033,1372.5C 1035.44,1372.04 1037.77,1372.04 1040,1372.5C 1042.02,1372.8 1042.52,1373.63 1041.5,1375C 1040.33,1375.35 1039.16,1375.19 1038,1374.5C 1035.49,1375.68 1032.99,1376.85 1030.5,1378C 963.794,1388.06 900.127,1377.72 839.5,1347C 826.667,1338.75 813.667,1330.75 800.5,1323C 790.851,1315.68 781.518,1308.01 772.5,1300C 771.552,1299.52 770.552,1299.35 769.5,1299.5C 765.189,1293.35 759.856,1287.85 753.5,1283C 728.09,1257.19 707.09,1228.69 690.5,1197.5C 689.205,1195.67 688.205,1193.67 687.5,1191.5C 686.914,1191.71 686.414,1192.04 686,1192.5C 683.138,1186.25 680.472,1179.91 678,1173.5C 676,1170.17 674,1166.83 672,1163.5C 664.295,1142.53 658.295,1121.19 654,1099.5C 653.5,1097.67 652.333,1096.5 650.5,1096C 652.934,1092.96 653.1,1089.79 651,1086.5C 650.667,1087.5 650.333,1088.5 650,1089.5C 645.035,1063.32 642.535,1036.99 642.5,1010.5C 643.589,1002.69 644.589,994.855 645.5,987C 644.807,983.435 645.307,979.935 647,976.5C 647.686,966.42 649.019,956.42 651,946.5C 656.604,928.091 661.604,909.425 666,890.5C 674.307,870.218 683.974,850.552 695,831.5C 696.011,830.663 697.178,830.33 698.5,830.5C 698.854,828.459 698.854,826.626 698.5,825C 700.09,823.954 701.59,822.787 703,821.5C 707.653,811.524 713.319,802.191 720,793.5C 735.495,775.672 751.995,758.838 769.5,743C 782.524,732.636 795.524,722.303 808.5,712C 858.034,682.042 911.701,663.375 969.5,656C 999.497,652.68 1029.5,652.68 1059.5,656C 1066.34,657.096 1073.01,658.763 1079.5,661C 1078.55,661.718 1078.38,662.551 1079,663.5C 1081.18,661.129 1083.35,661.296 1085.5,664C 1086.71,664.893 1086.71,665.726 1085.5,666.5C 1083.54,665.452 1081.54,664.952 1079.5,665C 1082.02,667.291 1085.02,668.624 1088.5,669C 1090.61,669.906 1091.45,671.406 1091,673.5C 1089.83,671.384 1088.33,670.718 1086.5,671.5C 1082.35,669.442 1078.35,669.442 1074.5,671.5C 1073.83,670.833 1073.17,670.167 1072.5,669.5C 1069.89,669.929 1068.39,670.929 1068,672.5C 1065.94,671.888 1064.11,670.888 1062.5,669.5C 1060.62,669.623 1058.79,669.623 1057,669.5C 1056.12,671.513 1054.79,671.513 1053,669.5C 1047.34,670.275 1041.67,670.609 1036,670.5C 1033.8,669.91 1031.64,669.243 1029.5,668.5C 1025.88,668.881 1022.38,668.881 1019,668.5C 1017.29,668.439 1015.96,669.106 1015,670.5C 1013.33,669.833 1011.67,669.167 1010,668.5C 1003.91,669.705 997.912,669.705 992,668.5C 986.236,669.663 980.403,670.663 974.5,671.5C 975,671.833 975.5,672.167 976,672.5C 983.654,672.206 991.654,671.539 1000,670.5C 1004.75,670.63 1009.58,671.297 1014.5,672.5C 1022.82,671.425 1031.15,671.592 1039.5,673C 1037.61,673.973 1035.61,674.64 1033.5,675C 1044.1,676.143 1054.6,677.643 1065,679.5C 1068.04,678.496 1071.04,678.83 1074,680.5C 1074.87,680.265 1075.71,679.931 1076.5,679.5C 1080.97,681.356 1085.63,682.356 1090.5,682.5C 1090.49,684.308 1090.99,685.975 1092,687.5C 1094.15,686.524 1096.31,686.691 1098.5,688C 1095.44,689.252 1092.44,689.752 1089.5,689.5C 1091.01,690.862 1092.51,691.196 1094,690.5C 1098.83,691.749 1103.66,693.083 1108.5,694.5C 1110.53,693.371 1110.86,693.871 1109.5,696C 1110.45,696.617 1111.28,696.451 1112,695.5C 1115.43,697.129 1118.93,698.629 1122.5,700C 1121.5,700.5 1120.5,701 1119.5,701.5C 1115.87,700.325 1112.37,698.991 1109,697.5C 1107.51,698.424 1107.34,699.424 1108.5,700.5C 1113.77,702.389 1118.93,704.389 1124,706.5C 1124.33,706.167 1124.67,705.833 1125,705.5C 1129.16,709.946 1128.16,710.612 1122,707.5C 1120.35,708.898 1119.02,708.564 1118,706.5C 1117.67,706.833 1117.33,707.167 1117,707.5C 1110.38,705.138 1103.55,703.638 1096.5,703C 1094.32,702.837 1092.49,702.004 1091,700.5C 1089.03,700.647 1087.03,700.981 1085,701.5C 1080.29,699.47 1075.46,698.803 1070.5,699.5C 1066.63,698.865 1062.8,698.199 1059,697.5C 1054.35,697.515 1049.85,697.848 1045.5,698.5C 1044.52,698.023 1043.69,697.357 1043,696.5C 1033.04,697.19 1023.04,697.857 1013,698.5C 1012.23,698.355 1011.56,698.022 1011,697.5C 1004.05,699.893 996.716,702.226 989,704.5C 986.418,704.889 983.751,704.889 981,704.5C 978.516,704.826 976.349,705.826 974.5,707.5C 971.498,706.489 968.498,706.656 965.5,708C 958.196,710.879 950.696,713.379 943,715.5C 941.079,714.81 939.245,714.476 937.5,714.5C 928.103,719.852 918.103,723.685 907.5,726C 878.469,739.337 851.135,755.671 825.5,775C 818.483,782.086 811.483,789.086 804.5,796C 803.207,796.49 801.873,796.657 800.5,796.5C 800.66,798.199 800.494,799.866 800,801.5C 777.27,826.911 757.604,854.578 741,884.5C 737.08,896.253 732.747,907.92 728,919.5C 721.901,939.33 717.901,959.33 716,979.5C 714.349,984.669 713.182,990.002 712.5,995.5C 713.726,1001.97 713.726,1008.47 712.5,1015C 715.598,1062.58 726.432,1108.75 745,1153.5C 757.58,1178.33 772.914,1201.33 791,1222.5C 791.346,1224.22 791.846,1225.88 792.5,1227.5C 792.291,1228.09 791.957,1228.59 791.5,1229C 792.744,1229.46 793.577,1228.96 794,1227.5C 795.087,1229.75 796.921,1231.09 799.5,1231.5C 800.145,1232.73 800.311,1234.07 800,1235.5C 800.333,1235.17 800.667,1234.83 801,1234.5C 802.378,1236.21 804.045,1237.55 806,1238.5C 807.646,1240.05 807.979,1241.72 807,1243.5C 807.333,1243.83 807.667,1244.17 808,1244.5C 808.308,1243.69 808.808,1243.03 809.5,1242.5C 812.298,1245.1 815.298,1247.44 818.5,1249.5C 820.742,1251.7 822.242,1254.04 823,1256.5C 823.718,1255.55 824.551,1255.38 825.5,1256C 837.858,1265.57 850.858,1274.24 864.5,1282C 862.729,1282.54 862.396,1283.37 863.5,1284.5C 864.293,1284.07 865.127,1283.74 866,1283.5C 868.766,1284.92 871.599,1286.26 874.5,1287.5C 873.833,1288.17 873.167,1288.83 872.5,1289.5C 874.5,1289.83 876.5,1290.17 878.5,1290.5C 877.355,1291.89 877.355,1293.22 878.5,1294.5C 879.281,1293.26 880.281,1292.26 881.5,1291.5C 882.298,1291.96 882.631,1292.62 882.5,1293.5C 885.755,1293.01 888.422,1294.01 890.5,1296.5C 894.285,1296.23 897.285,1297.9 899.5,1301.5C 900.086,1301.29 900.586,1300.96 901,1300.5C 927.009,1312 954.175,1320 982.5,1324.5C 985.52,1324.02 988.52,1323.68 991.5,1323.5C 1014.31,1326.92 1037.15,1326.59 1060,1322.5C 1060.87,1322.74 1061.71,1323.07 1062.5,1323.5C 1085.33,1318.83 1107.33,1310.99 1128.5,1300C 1140.04,1294.49 1148.54,1285.99 1154,1274.5C 1154.67,1271.83 1155.33,1269.17 1156,1266.5C 1155.43,1211.89 1171.76,1163.22 1205,1120.5C 1228.3,1180.95 1215.64,1232.62 1167,1275.5C 1162.91,1280.37 1159.91,1285.7 1158,1291.5C 1187.06,1276.46 1212.73,1256.79 1235,1232.5C 1251.17,1213.5 1256.17,1191.83 1250,1167.5C 1245.73,1154.03 1241.06,1140.69 1236,1127.5C 1228.72,1096.16 1228.89,1064.82 1236.5,1033.5C 1237,1032.48 1237.67,1032.31 1238.5,1033C 1282.21,1077.25 1291.05,1127.75 1265,1184.5C 1263.38,1190.89 1262.05,1197.23 1261,1203.5C 1278.92,1180.34 1293.25,1155.01 1304,1127.5C 1310.37,1110.35 1311.04,1093.02 1306,1075.5C 1303.75,1070 1300.75,1065 1297,1060.5C 1268.56,1034.64 1249.56,1002.98 1240,965.5C 1237.96,958.384 1236.13,951.218 1234.5,944C 1234.63,942.941 1235.13,942.108 1236,941.5C 1255.27,948.291 1272.27,958.625 1287,972.5C 1310.45,1001.94 1320.45,1035.61 1317,1073.5C 1317.47,1075.78 1318.47,1077.78 1320,1079.5C 1322.63,1071.39 1324.3,1063.05 1325,1054.5C 1327.97,1028.83 1327.64,1003.17 1324,977.5C 1322.19,966.035 1317.69,955.869 1310.5,947C 1299.81,940.771 1288.48,936.104 1276.5,933C 1266.72,928.861 1257.72,923.528 1249.5,917C 1228.05,898.394 1209.72,877.227 1194.5,853.5C 1232.18,849.596 1263.35,861.929 1288,890.5C 1295.06,900.564 1301.73,910.898 1308,921.5C 1310.31,923.806 1312.64,926.14 1315,928.5C 1315.52,924.449 1315.18,920.449 1314,916.5C 1308.17,899.016 1301.17,882.016 1293,865.5C 1285.23,853.403 1275.73,842.903 1264.5,834C 1262.17,833 1259.83,832 1257.5,831C 1227.93,830.444 1200.6,822.444 1175.5,807C 1159.15,795.822 1143.15,784.156 1127.5,772C 1164.42,760.32 1198.76,765.653 1230.5,788C 1245.56,798.718 1259.06,811.218 1271,825.5C 1258.45,795.56 1237.62,772.06 1208.5,755C 1188.56,745.702 1170.23,734.035 1153.5,720C 1133.73,698.77 1115.4,676.437 1098.5,653C 1151.37,655.333 1191.53,678.833 1219,723.5C 1226.33,737.5 1233.67,751.5 1241,765.5C 1262.84,795.844 1283.17,827.177 1302,859.5C 1302.31,855.38 1301.64,851.38 1300,847.5C 1289.93,828.127 1279.93,808.794 1270,789.5C 1261.96,766.499 1259.29,742.833 1262,718.5C 1262.33,714.5 1262.67,710.5 1263,706.5C 1263.41,706.043 1263.91,705.709 1264.5,705.5C 1284.31,721.779 1299.81,741.446 1311,764.5C 1317.84,781.544 1320.51,799.211 1319,817.5C 1316.27,830.576 1314.11,843.743 1312.5,857C 1313.17,865.238 1314.34,873.405 1316,881.5C 1325.04,912.668 1331.71,944.335 1336,976.5C 1337.07,969.218 1337.57,961.885 1337.5,954.5C 1336.77,937.318 1335.77,920.152 1334.5,903C 1335.33,882.162 1339.5,861.995 1347,842.5C 1351.15,831.719 1355.48,821.053 1360,810.5C 1384.03,849.077 1388.36,889.744 1373,932.5C 1365.67,944.5 1358.33,956.5 1351,968.5C 1345.01,980.129 1341.34,992.462 1340,1005.5C 1338.71,1032.05 1336.04,1058.38 1332,1084.5C 1334.86,1080.11 1337.19,1075.45 1339,1070.5C 1343.04,1044.32 1351.37,1019.66 1364,996.5C 1378.01,975.824 1394.84,957.657 1414.5,942C 1419.68,972.945 1414.84,1003.11 1400,1032.5C 1393.69,1043.49 1385.85,1053.32 1376.5,1062C 1367.01,1069.24 1357.34,1076.24 1347.5,1083C 1342.3,1087.87 1337.47,1093.03 1333,1098.5C 1318.11,1128.96 1302.77,1158.96 1287,1188.5C 1293.26,1184.24 1298.93,1179.24 1304,1173.5C 1314.4,1152.44 1327.9,1133.6 1344.5,1117C 1366.58,1100.29 1390.91,1087.79 1417.5,1079.5C 1408.49,1117.07 1388.82,1147.57 1358.5,1171C 1353.42,1174.4 1348.09,1177.4 1342.5,1180C 1328.23,1184.87 1313.9,1189.53 1299.5,1194C 1289.49,1199 1280.15,1205 1271.5,1212C 1253.47,1229.7 1235.8,1247.7 1218.5,1266C 1219.83,1266.67 1221.17,1266.67 1222.5,1266C 1235.33,1258.84 1247.33,1250.5 1258.5,1241C 1292.77,1217.35 1330.44,1208.68 1371.5,1215C 1357.38,1232.79 1341.05,1248.12 1322.5,1261C 1294.91,1277.5 1265.24,1282.66 1233.5,1276.5C 1219.43,1276.55 1206.1,1279.71 1193.5,1286C 1175.04,1294.73 1156.71,1303.73 1138.5,1313C 1133.9,1315.21 1129.73,1318.05 1126,1321.5C 1125.33,1322.17 1125.33,1322.83 1126,1323.5C 1143.67,1317.61 1161.5,1312.11 1179.5,1307C 1203.57,1302.18 1227.57,1302.51 1251.5,1308C 1263.65,1310.66 1275.65,1313.83 1287.5,1317.5C 1287.44,1319.59 1286.44,1321.09 1284.5,1322C 1264.89,1335.97 1243.23,1345.3 1219.5,1350C 1204.44,1352.21 1189.44,1351.88 1174.5,1349C 1161.2,1345.18 1148.2,1340.52 1135.5,1335C 1131.07,1333.78 1126.57,1332.95 1122,1332.5C 1113.53,1333.98 1105.36,1336.48 1097.5,1340C 1096.83,1341.33 1096.17,1342.67 1095.5,1344C 1073.97,1357.42 1050.64,1366.42 1025.5,1371C 1021.91,1371.79 1018.41,1371.62 1015,1370.5C 1014.67,1371.17 1014.33,1371.83 1014,1372.5C 1012.99,1371.66 1011.82,1371.33 1010.5,1371.5C 1010.5,1372.5 1010.5,1373.5 1010.5,1374.5 Z"/></g>
<g><path style="opacity:1" fill="#fefffe" d="M 1055.5,663.5 C 1054.19,663.879 1052.86,664.212 1051.5,664.5C 1050.69,664.192 1050.03,663.692 1049.5,663C 1051.71,662.211 1053.71,662.378 1055.5,663.5 Z"/></g>
<g><path style="opacity:1" fill="#fefffe" d="M 1055.5,663.5 C 1057.45,662.592 1059.45,662.759 1061.5,664C 1061,664.5 1060.5,665 1060,665.5C 1058.38,664.901 1056.88,664.234 1055.5,663.5 Z"/></g>
<g><path style="opacity:1" fill="#fefffe" d="M 1068.5,663.5 C 1069.38,663.369 1070.04,663.702 1070.5,664.5C 1068.19,665.873 1067.52,665.54 1068.5,663.5 Z"/></g>
<g><path style="opacity:1" fill="#fefffe" d="M 1049.5,667.5 C 1052,667.511 1052.17,668.178 1050,669.5C 1049.54,668.906 1049.37,668.239 1049.5,667.5 Z"/></g>
<g><path style="opacity:1" fill="#fefffe" d="M 1023.5,672.5 C 1026.29,673.017 1028.95,673.85 1031.5,675C 1028.1,675.968 1025.43,675.135 1023.5,672.5 Z"/></g>
<g><path style="opacity:1" fill="#fefffe" d="M 1083.5,686.5 C 1088.81,690.189 1088.48,690.855 1082.5,688.5C 1082.86,687.817 1083.2,687.15 1083.5,686.5 Z"/></g>
<g><path style="opacity:1" fill="#fefffe" d="M 846.5,702.5 C 847.774,703.189 847.774,704.023 846.5,705C 840.634,707.622 834.967,710.622 829.5,714C 828.5,714.667 827.5,714.667 826.5,714C 833.066,709.887 839.733,706.054 846.5,702.5 Z"/></g>
<g><path style="opacity:1" fill="#fefffe" d="M 818.5,719.5 C 820.337,719.639 820.67,720.306 819.5,721.5C 818.702,721.043 818.369,720.376 818.5,719.5 Z"/></g>
<g><path style="opacity:1" fill="#fefffe" d="M 811.5,723.5 C 812.552,723.351 813.552,723.517 814.5,724C 811.308,726.692 807.975,729.192 804.5,731.5C 804.167,731.167 803.833,730.833 803.5,730.5C 806.239,728.149 808.905,725.816 811.5,723.5 Z"/></g>
<g><path style="opacity:1" fill="#fefffe" d="M 875.5,730.5 C 876.475,728.487 878.142,727.154 880.5,726.5C 880.833,726.833 881.167,727.167 881.5,727.5C 879.757,729.038 877.757,730.038 875.5,730.5 Z"/></g>
<g><path style="opacity:1" fill="#fefffe" d="M 882.5,726.5 C 885.797,726.329 886.131,726.995 883.5,728.5C 882.702,728.043 882.369,727.376 882.5,726.5 Z"/></g>
<g><path style="opacity:1" fill="#fefffe" d="M 875.5,730.5 C 875.361,732.337 874.694,732.67 873.5,731.5C 873.957,730.702 874.624,730.369 875.5,730.5 Z"/></g>
<g><path style="opacity:1" fill="#fefffe" d="M 799.5,732.5 C 800.239,732.369 800.906,732.536 801.5,733C 800.333,734.167 799.167,735.333 798,736.5C 797.516,734.807 798.016,733.473 799.5,732.5 Z"/></g>
<g><path style="opacity:1" fill="#fefffe" d="M 866.5,735.5 C 867.774,736.189 867.774,737.023 866.5,738C 863.705,739.3 861.039,740.8 858.5,742.5C 858.167,742.167 857.833,741.833 857.5,741.5C 860.427,739.216 863.427,737.216 866.5,735.5 Z"/></g>
<g><path style="opacity:1" fill="#fefffe" d="M 854.5,742.5 C 855.239,742.369 855.906,742.536 856.5,743C 854.546,744.84 852.546,745.673 850.5,745.5C 851.901,744.479 853.235,743.479 854.5,742.5 Z"/></g>
<g><path style="opacity:1" fill="#fefffe" d="M 840.5,751.5 C 841.773,752.077 841.773,752.743 840.5,753.5C 839.537,753.03 839.537,752.363 840.5,751.5 Z"/></g>
<g><path style="opacity:1" fill="#fefffe" d="M 764.5,764.5 C 765.688,766.496 765.021,767.329 762.5,767C 763.381,766.292 764.047,765.458 764.5,764.5 Z"/></g>
<g><path style="opacity:1" fill="#fefffe" d="M 755.5,774.5 C 756.713,771.775 758.546,769.441 761,767.5C 760.228,770.464 758.395,772.798 755.5,774.5 Z"/></g>
<g><path style="opacity:1" fill="#fefffe" d="M 755.5,774.5 C 754.198,777.975 751.865,780.142 748.5,781C 750.518,778.354 752.851,776.187 755.5,774.5 Z"/></g>
<g><path style="opacity:1" fill="#fefffe" d="M 743.5,787.5 C 744.055,785.271 745.389,783.605 747.5,782.5C 748.521,783.002 748.688,783.668 748,784.5C 746.6,785.748 745.1,786.748 743.5,787.5 Z"/></g>
<g><path style="opacity:1" fill="#fefffe" d="M 743.5,787.5 C 741.287,792.052 738.287,796.052 734.5,799.5C 733.479,798.998 733.312,798.332 734,797.5C 737.061,793.942 740.228,790.609 743.5,787.5 Z"/></g>
<g><path style="opacity:1" fill="#fefffe" d="M 720.5,819.5 C 720.826,816.999 722.159,815.832 724.5,816C 723.295,817.376 721.962,818.542 720.5,819.5 Z"/></g>
<g><path style="opacity:1" fill="#fcfcfc" d="M 720.5,819.5 C 720.579,820.93 720.246,822.264 719.5,823.5C 715.145,830.181 710.811,836.848 706.5,843.5C 709.523,834.82 714.19,826.82 720.5,819.5 Z"/></g>
<g><path style="opacity:1" fill="#fefffe" d="M 703.5,844.5 C 705.656,844.872 705.656,845.872 703.5,847.5C 702.438,846.575 702.438,845.575 703.5,844.5 Z"/></g>
<g><path style="opacity:1" fill="#fefffe" d="M 689.5,846.5 C 690.289,846.783 690.956,847.283 691.5,848C 690.184,848.528 689.517,848.028 689.5,846.5 Z"/></g>
<g><path style="opacity:1" fill="#fefffe" d="M 685.5,880.5 C 686.573,881.251 686.74,882.251 686,883.5C 684.272,882.648 684.105,881.648 685.5,880.5 Z"/></g>
<g><path style="opacity:1" fill="#fefffe" d="M 682.5,884.5 C 683.376,884.369 684.043,884.702 684.5,885.5C 682.666,890.839 680.832,896.172 679,901.5C 678.282,902.451 677.449,902.617 676.5,902C 678.583,896.154 680.583,890.321 682.5,884.5 Z"/></g>
<g><path style="opacity:1" fill="#fefffe" d="M 675.5,905.5 C 676.497,905.47 677.164,905.97 677.5,907C 676.514,911.804 674.847,916.304 672.5,920.5C 672.167,920.167 671.833,919.833 671.5,919.5C 673.041,914.879 674.374,910.212 675.5,905.5 Z"/></g>
<g><path style="opacity:1" fill="#fefffe" d="M 671.5,922.5 C 672.773,923.077 672.773,923.743 671.5,924.5C 670.537,924.03 670.537,923.363 671.5,922.5 Z"/></g>
<g><path style="opacity:1" fill="#fafafa" d="M 669.5,925.5 C 672.971,925.899 673.304,927.399 670.5,930C 671.983,932.573 671.483,934.74 669,936.5C 669.238,932.891 669.405,929.225 669.5,925.5 Z"/></g>
<g><path style="opacity:1" fill="#fefffe" d="M 661.5,963.5 C 662.773,964.077 662.773,964.743 661.5,965.5C 660.537,965.03 660.537,964.363 661.5,963.5 Z"/></g>
<g><path style="opacity:1" fill="#fefffe" d="M 660.5,986.5 C 659.334,984.834 659.334,983.167 660.5,981.5C 661.788,983.299 661.788,984.965 660.5,986.5 Z"/></g>
<g><path style="opacity:1" fill="#fefffe" d="M 660.5,986.5 C 661.087,987.767 661.087,988.767 660.5,989.5C 659.224,988.386 659.224,987.386 660.5,986.5 Z"/></g>
<g><path style="opacity:1" fill="#fefffe" d="M 669.5,1015.5 C 671.847,1017.03 672.014,1019.03 670,1021.5C 669.505,1019.53 669.338,1017.53 669.5,1015.5 Z"/></g>
<g><path style="opacity:1" fill="#fefffe" d="M 658.5,1016.5 C 659.586,1016.62 660.253,1017.29 660.5,1018.5C 660.167,1019.17 659.833,1019.83 659.5,1020.5C 658.571,1019.31 658.238,1017.98 658.5,1016.5 Z"/></g>
<g><path style="opacity:1" fill="#fefffe" d="M 658.5,1021.5 C 660.225,1021.84 660.725,1022.84 660,1024.5C 658.961,1023.76 658.461,1022.76 658.5,1021.5 Z"/></g>
<g><path style="opacity:1" fill="#fefffe" d="M 797.5,1237.5 C 798.077,1236.23 798.743,1236.23 799.5,1237.5C 799.03,1238.46 798.363,1238.46 797.5,1237.5 Z"/></g>
<g><path style="opacity:1" fill="#fefffe" d="M 864.5,1285.5 C 866.117,1286.04 867.784,1286.37 869.5,1286.5C 869.719,1287.68 869.386,1288.68 868.5,1289.5C 866.8,1288.39 865.466,1287.06 864.5,1285.5 Z"/></g>
<g><path style="opacity:1" fill="#fefffe" d="M 882.5,1293.5 C 883.649,1298.02 882.983,1298.36 880.5,1294.5C 880.957,1293.7 881.624,1293.37 882.5,1293.5 Z"/></g>
<g><path style="opacity:1" fill="#fefffe" d="M 1090.5,1334.5 C 1091.71,1335.19 1093.04,1335.36 1094.5,1335C 1092.42,1336.69 1090.09,1337.36 1087.5,1337C 1088.57,1336.15 1089.57,1335.31 1090.5,1334.5 Z"/></g>
<g><path style="opacity:1" fill="#fefffe" d="M 846.5,1341.5 C 848.503,1340.47 850.503,1340.8 852.5,1342.5C 852.192,1343.31 851.692,1343.97 851,1344.5C 849.729,1343.12 848.229,1342.12 846.5,1341.5 Z"/></g>
<g><path style="opacity:1" fill="#fefffe" d="M 855.5,1345.5 C 856.077,1344.23 856.743,1344.23 857.5,1345.5C 857.03,1346.46 856.363,1346.46 855.5,1345.5 Z"/></g>
<g><path style="opacity:1" fill="#fefffe" d="M 1054.5,1348.5 C 1055.68,1348.28 1056.68,1348.61 1057.5,1349.5C 1054.72,1351.3 1051.72,1351.8 1048.5,1351C 1050.61,1350.16 1052.61,1349.32 1054.5,1348.5 Z"/></g>
<g><path style="opacity:1" fill="#fefffe" d="M 1043.5,1350.5 C 1044.98,1350.24 1046.31,1350.57 1047.5,1351.5C 1044.55,1353.87 1041.21,1354.71 1037.5,1354C 1039.69,1353.74 1041.69,1352.58 1043.5,1350.5 Z"/></g>
<g><path style="opacity:1" fill="#fefffe" d="M 898.5,1358.5 C 900.346,1358.22 901.68,1358.89 902.5,1360.5C 900.167,1361.94 898.834,1361.27 898.5,1358.5 Z"/></g>
<g><path style="opacity:1" fill="#fefffe" d="M 904.5,1361.5 C 908.574,1361.7 912.574,1362.37 916.5,1363.5C 913.361,1364.6 910.194,1364.6 907,1363.5C 903.688,1366.46 902.854,1365.79 904.5,1361.5 Z"/></g>
<g><path style="opacity:1" fill="#fefffe" d="M 905.5,1365.5 C 906.721,1364.54 908.054,1364.7 909.5,1366C 908.072,1366.58 906.738,1366.41 905.5,1365.5 Z"/></g>
<g><path style="opacity:1" fill="#fefffe" d="M 919.5,1364.5 C 921.355,1364.27 922.188,1364.94 922,1366.5C 921.333,1365.17 920.667,1365.17 920,1366.5C 919.536,1365.91 919.369,1365.24 919.5,1364.5 Z"/></g>
<g><path style="opacity:1" fill="#e7e7e7" d="M 935.5,1369.5 C 938.137,1371.15 937.803,1371.65 934.5,1371C 935.056,1370.62 935.389,1370.12 935.5,1369.5 Z"/></g>
<g><path style="opacity:1" fill="#fefffe" d="M 938.5,1370.5 C 940.337,1370.64 940.67,1371.31 939.5,1372.5C 938.702,1372.04 938.369,1371.38 938.5,1370.5 Z"/></g>
<g><path style="opacity:1" fill="#fefffe" d="M 943.5,1370.5 C 948.021,1370.33 948.355,1370.99 944.5,1372.5C 943.702,1372.04 943.369,1371.38 943.5,1370.5 Z"/></g>
<g><path style="opacity:1" fill="#fefffe" d="M 948.5,1370.5 C 951.392,1370.72 954.059,1371.55 956.5,1373C 954.674,1373.29 952.841,1373.12 951,1372.5C 949.624,1372.32 948.791,1371.65 948.5,1370.5 Z"/></g>
<g><path style="opacity:1" fill="#fefffe" d="M 975.5,1373.5 C 971.89,1374.36 971.723,1373.7 975,1371.5C 975.464,1372.09 975.631,1372.76 975.5,1373.5 Z"/></g>
<g><path style="opacity:1" fill="#fefffe" d="M 969.5,1372.5 C 970.376,1372.37 971.043,1372.7 971.5,1373.5C 969.192,1374.87 968.525,1374.54 969.5,1372.5 Z"/></g>
<g><path style="opacity:1" fill="#fdfdfd" d="M 1010.5,1374.5 C 1010.22,1375.29 1009.72,1375.96 1009,1376.5C 1006.69,1374.55 1004.69,1374.55 1003,1376.5C 1001,1375.83 999,1375.17 997,1374.5C 990.365,1374.69 984.032,1375.03 978,1375.5C 976.699,1375.36 975.866,1374.69 975.5,1373.5C 986.433,1372.64 997.267,1372.31 1008,1372.5C 1008.71,1373.38 1009.54,1374.05 1010.5,1374.5 Z"/></g>
<g><path style="opacity:1" fill="#fefffe" d="M 1010.5,1376.5 C 1012.98,1376.75 1012.98,1377.41 1010.5,1378.5C 1009.54,1378.03 1009.54,1377.36 1010.5,1376.5 Z"/></g>
</svg>
