<?xml version="1.0" standalone="no"?>
<!DOCTYPE svg PUBLIC "-//W3C//DTD SVG 20010904//EN"
 "http://www.w3.org/TR/2001/REC-SVG-20010904/DTD/svg10.dtd">
<svg version="1.0" xmlns="http://www.w3.org/2000/svg"
 width="1024.000000pt" height="1024.000000pt" viewBox="0 0 1024.000000 1024.000000"
 preserveAspectRatio="xMidYMid meet">

<g transform="translate(0.000000,1024.000000) scale(0.100000,-0.100000)"
fill="#000000" stroke="none">
<path d="M5469 9495 c-3 -2 -34 -7 -69 -10 -73 -7 -239 -48 -284 -70 -16 -8
-34 -15 -40 -15 -6 0 -48 -19 -94 -42 -99 -49 -206 -140 -317 -268 -44 -51
-98 -112 -119 -137 -41 -46 -175 -156 -261 -213 -68 -46 -263 -193 -300 -226
-16 -15 -54 -50 -84 -78 -72 -69 -51 -32 51 87 147 173 206 263 265 407 45
107 60 160 79 263 24 141 18 176 -31 157 -46 -18 -208 -144 -297 -232 -135
-135 -188 -259 -208 -488 -5 -63 -12 -125 -14 -136 -2 -12 -10 -65 -16 -119
-6 -53 -18 -115 -26 -137 -18 -51 -68 -140 -112 -197 -39 -52 -125 -227 -142
-291 -7 -25 -15 -40 -17 -33 -5 14 31 200 52 268 28 94 45 235 46 388 0 169
-4 229 -25 370 -17 114 -20 121 -47 107 -18 -10 -131 -175 -163 -238 -18 -36
-53 -140 -59 -177 -3 -16 -11 -55 -17 -85 -10 -53 -14 -194 -6 -235 2 -11 7
-47 11 -79 4 -33 18 -91 31 -130 95 -271 104 -318 110 -531 l4 -170 -23 61
c-30 78 -63 134 -136 231 -89 117 -236 254 -320 298 -29 14 -31 14 -31 -2 0
-10 9 -47 20 -83 20 -64 47 -171 56 -220 3 -14 9 -39 15 -56 5 -17 11 -40 14
-50 9 -47 50 -165 77 -224 44 -99 111 -190 232 -320 112 -118 127 -140 250
-370 31 -58 75 -134 97 -169 24 -39 38 -73 36 -85 -4 -19 -4 -19 -6 2 -1 15
-5 21 -13 16 -6 -4 -8 -3 -5 3 19 31 -235 185 -356 217 -84 22 -212 40 -231
33 -32 -12 -25 -22 133 -193 250 -269 408 -367 697 -434 116 -27 128 -32 262
-112 62 -37 114 -68 116 -68 2 0 35 -18 75 -39 39 -22 87 -45 107 -51 l37 -12
-34 -21 c-246 -148 -390 -268 -475 -393 -63 -93 -179 -311 -219 -412 -15 -37
-31 -71 -35 -77 -4 -5 -24 -47 -43 -93 -20 -46 -59 -121 -87 -168 -28 -47 -53
-93 -55 -102 -2 -9 -11 -42 -19 -72 -22 -76 -20 -119 8 -192 50 -134 141 -285
336 -558 54 -74 103 -146 110 -159 7 -14 17 -30 22 -35 10 -13 178 -269 178
-273 0 -1 14 -26 31 -55 46 -78 90 -193 104 -273 7 -38 11 -128 10 -200 -3
-145 -20 -240 -90 -505 -38 -141 -62 -223 -128 -430 -6 -19 -10 -40 -9 -47 2
-6 -2 -14 -8 -18 -5 -3 -10 -14 -10 -23 0 -9 -32 -112 -70 -230 -44 -133 -68
-222 -64 -234 4 -15 3 -19 -7 -14 -8 4 -5 0 5 -8 14 -11 22 -13 27 -5 4 7 8 5
12 -6 4 -9 3 -14 -2 -11 -5 3 -12 -1 -15 -10 -4 -12 -2 -15 9 -10 14 5 21 -12
15 -39 -1 -5 2 -7 6 -3 4 4 13 3 21 -3 7 -6 13 -8 13 -4 0 4 6 2 14 -4 9 -7
17 -8 20 -3 7 12 -22 24 -37 16 -9 -5 -9 -4 -1 5 9 10 17 10 32 2 10 -6 23 -7
27 -3 5 4 5 -2 1 -13 -6 -16 -5 -18 5 -8 7 7 20 13 29 12 10 0 11 -2 2 -6 -6
-2 -10 -9 -7 -14 10 -15 32 14 28 36 -4 16 -2 15 9 -5 8 -14 21 -24 28 -22 7
2 17 -3 22 -10 7 -9 8 -5 4 12 -5 24 -4 24 9 6 15 -19 15 -19 15 4 0 21 2 22
13 8 14 -18 63 -36 53 -20 -3 6 -2 14 4 17 6 4 10 3 9 -2 -1 -4 0 -19 1 -33 2
-18 4 -20 7 -7 3 10 9 14 16 10 7 -4 6 1 -2 10 -16 20 -12 21 23 7 16 -6 44
-6 73 0 29 5 52 5 58 -1 14 -14 25 -11 25 7 0 8 5 12 10 9 6 -4 7 -11 4 -17
-4 -7 -2 -8 5 -4 6 4 9 12 6 17 -4 5 -1 9 4 9 6 0 11 -4 11 -10 0 -5 5 -10 11
-10 5 0 8 4 5 9 -4 5 4 7 16 4 19 -4 20 -3 8 6 -9 7 -10 11 -3 11 6 0 15 -5
18 -10 4 -7 11 -7 18 -2 7 5 21 8 32 6 11 -2 36 8 55 20 44 30 76 40 85 27 4
-7 -1 -8 -11 -4 -12 4 -15 3 -10 -5 8 -13 41 -11 53 3 5 4 3 5 -3 2 -7 -4 -14
-1 -17 7 -5 11 0 13 23 6 24 -7 28 -6 23 7 -5 12 -1 14 14 9 13 -4 27 -1 37 9
9 9 16 14 16 10 0 -3 14 7 32 24 19 17 39 28 51 25 11 -2 17 -1 14 2 -3 4 7
17 22 30 23 19 31 39 45 106 9 46 21 101 27 123 5 22 11 60 14 85 2 25 18 110
34 190 30 154 67 365 75 440 10 79 18 144 22 165 2 11 13 83 24 160 11 77 30
174 41 215 12 41 30 107 40 145 11 39 24 84 30 102 17 55 21 94 23 268 5 259
-32 504 -99 663 -61 146 -134 347 -150 412 -64 267 -63 259 -54 640 4 126 -4
257 -16 297 -3 9 -31 -3 -82 -34 -90 -54 -161 -109 -254 -199 l-67 -64 -11
-117 c-27 -267 -32 -310 -42 -355 l-11 -47 -41 13 c-23 7 -86 35 -139 62 l-97
49 101 150 c55 83 129 187 164 231 73 94 225 229 302 268 81 41 214 139 300
221 87 84 103 88 203 59 62 -18 188 -89 257 -144 78 -61 89 -65 108 -35 15 24
15 26 -19 72 -75 103 -183 164 -340 193 -49 9 -67 16 -63 26 29 77 8 142 -58
174 -54 26 -96 25 -147 -1 -23 -11 -43 -19 -44 -17 -2 2 0 20 4 39 10 46 -6
86 -48 122 -77 65 -178 39 -444 -116 l-68 -40 -82 43 c-200 104 -319 204 -371
314 -35 72 -79 236 -92 336 -13 111 -84 293 -156 403 -21 32 -38 65 -38 73 0
9 -10 14 -28 14 -29 0 -29 0 -40 -94 -14 -112 -16 -291 -3 -332 5 -16 14 -49
22 -74 7 -25 21 -62 31 -82 21 -44 11 -51 -14 -10 -47 77 -126 181 -133 174
-5 -4 -5 1 -2 10 4 10 -8 40 -28 74 -62 103 -75 151 -75 280 0 164 25 237 136
396 40 57 106 186 138 270 31 83 64 246 68 333 3 65 2 70 -19 73 -25 4 -96
-55 -86 -71 4 -6 1 -7 -7 -2 -9 5 -33 -13 -76 -60 -35 -37 -64 -71 -64 -74 0
-4 -30 -61 -66 -125 -64 -115 -104 -230 -104 -298 0 -15 -4 -28 -9 -28 -11 0
-5 205 9 315 38 295 145 521 280 590 50 25 87 35 157 40 62 5 241 52 278 73 5
3 16 7 25 8 29 4 136 49 193 81 83 47 238 164 234 177 -5 16 -168 31 -177 16
-6 -9 -9 -9 -13 1 -4 12 -7 11 -16 -1 -7 -9 -11 -10 -11 -3 0 19 -60 13 -60
-6 0 -13 -2 -14 -9 -2 -7 11 -24 12 -73 7 -131 -13 -255 -59 -360 -133 -27
-18 -48 -31 -48 -29 0 3 35 40 78 84 123 126 252 223 380 284 37 18 70 36 74
42 4 6 10 7 14 3 4 -4 13 -2 20 4 7 6 65 28 128 48 64 21 114 40 112 42 -3 2
8 5 22 6 43 2 104 13 147 25 59 17 296 12 380 -7 134 -31 201 -78 320 -225 68
-84 193 -198 262 -238 69 -41 272 -127 280 -118 3 2 -3 32 -11 66 -25 96 -98
238 -151 293 -55 58 -41 57 74 -5 126 -67 204 -125 303 -226 92 -93 97 -100
122 -180 29 -92 34 -195 15 -332 -27 -205 -18 -311 42 -510 46 -153 69 -165
115 -63 79 176 111 317 102 457 -5 83 1 87 27 16 97 -262 117 -536 55 -748
-53 -179 -88 -229 -237 -345 -121 -93 -289 -290 -347 -406 -31 -59 -28 -81 8
-81 51 0 249 120 346 209 30 28 55 51 57 51 10 0 -89 -210 -132 -278 -30 -47
-55 -91 -55 -98 0 -16 28 -26 44 -17 25 15 73 78 69 91 -3 6 2 12 11 12 16 0
39 33 31 44 -3 3 -2 4 2 1 9 -7 43 46 37 57 -3 4 -1 8 5 8 5 0 13 9 16 20 13
40 21 19 18 -47 -9 -230 -8 -493 2 -493 30 0 153 157 216 275 95 180 117 371
63 546 -70 226 -66 200 -58 379 11 250 20 427 22 408 6 -61 84 -232 149 -331
60 -91 63 -95 150 -186 39 -42 81 -89 93 -104 25 -31 46 -35 54 -9 3 9 7 71
10 137 4 97 1 138 -15 212 -17 78 -77 227 -98 243 -3 3 -15 18 -25 34 -14 22
-20 26 -27 15 -7 -11 -9 -9 -9 7 0 23 -62 90 -126 138 -98 74 -180 169 -233
273 -54 105 -168 284 -230 363 -40 50 -30 44 75 -41 154 -124 249 -176 424
-229 58 -18 122 -41 143 -53 53 -29 64 -14 37 52 -86 219 -236 375 -435 452
-38 14 -131 41 -205 59 -185 44 -237 64 -333 127 -206 137 -346 209 -530 273
-60 20 -114 43 -120 50 -9 10 -9 11 2 5 8 -4 37 -10 65 -12 28 -2 85 -10 126
-18 97 -20 254 -30 245 -16 -3 6 -1 11 4 11 6 0 11 -5 11 -11 0 -5 5 -7 11 -4
5 4 36 9 67 11 31 2 68 6 82 9 14 3 34 7 45 10 11 2 45 11 75 20 30 8 104 26
163 39 59 13 113 28 119 34 8 8 1 19 -22 41 -94 85 -220 144 -369 171 -62 11
-260 14 -316 5 -16 -3 -46 -8 -65 -11 -19 -3 -127 -36 -240 -73 -270 -90 -308
-99 -485 -106 -218 -9 -458 -49 -581 -95 -91 -35 40 57 140 98 34 13 106 40
161 59 142 48 287 121 381 192 84 63 334 296 334 312 0 9 -103 13 -111 4z
m-781 -8529 c-7 -8 -15 -12 -17 -11 -5 6 10 25 20 25 5 0 4 -6 -3 -14z m-487
-23 c13 -16 12 -17 -3 -4 -10 7 -18 15 -18 17 0 8 8 3 21 -13z m-195 -1 c9 -5
8 -10 -2 -19 -8 -8 -15 -9 -19 -3 -3 6 0 10 7 10 9 0 9 3 -2 10 -8 5 -10 10
-5 10 6 0 15 -4 21 -8z m360 -32 c8 0 14 -5 14 -10 0 -7 -6 -7 -20 0 -11 6
-20 16 -19 23 0 9 2 9 6 0 2 -7 11 -13 19 -13z"/>
<path d="M4716 928 c3 -4 11 -5 19 -1 21 7 19 12 -4 10 -11 0 -18 -5 -15 -9z"/>
<path d="M4246 867 c3 -10 9 -15 12 -12 3 3 0 11 -7 18 -10 9 -11 8 -5 -6z"/>
</g>
</svg>
